<?xml version="1.0" encoding="iso-8859-1"?>
<!-- Generator: Adobe Illustrator 16.0.0, SVG Export Plug-In . SVG Version: 6.00 Build 0)  -->
<!DOCTYPE svg PUBLIC "-//W3C//DTD SVG 1.1//EN" "http://www.w3.org/Graphics/SVG/1.1/DTD/svg11.dtd">
<svg version="1.1" id="Capa_1" xmlns="http://www.w3.org/2000/svg" xmlns:xlink="http://www.w3.org/1999/xlink" x="0px" y="0px"
	 width="123.181px" height="123.181px" viewBox="0 0 123.181 123.181" style="enable-background:new 0 0 123.181 123.181;"
	 xml:space="preserve">
<g>
	<g>
		<circle cx="34.159" cy="14.833" r="14.833"/>
		<circle cx="88.029" cy="14.833" r="14.833"/>
		<path d="M100.121,35.006c-1.024-0.917-2.352-1.83-4.119-2.793c-1.352-0.753-2.805-1.322-4.277-1.685l-3.695,3.721l-3.582-3.764
			c-0.014,0.004-0.027,0.009-0.039,0.01c-2.303,0.55-4.529,1.64-6.422,3.125c-0.16,0.082-0.324,0.145-0.479,0.244
			c-0.582,0.376-11.672,7.765-16.021,25.088C57.504,44.023,48.588,36.7,46.25,35.007c-1.023-0.917-2.352-1.83-4.119-2.793
			c-1.352-0.753-2.804-1.322-4.277-1.685l-3.695,3.721l-3.583-3.764c-0.012,0.004-0.026,0.009-0.039,0.01
			c-2.303,0.55-4.529,1.641-6.422,3.125c-0.16,0.082-0.324,0.145-0.478,0.244C22.913,34.331,5.875,45.637,5.875,73.506
			c0,2.913,2.361,5.273,5.274,5.273s5.273-2.36,5.273-5.273c0-6.333,1.059-11.521,2.554-15.748v18.407
			c0,1.549-0.337,2.6,1.144,6.434c0.057,0.146,0.183,0.279,0.289,0.416c-0.026,0.229-0.07,0.453-0.07,0.69v33.146
			c0,3.495,2.833,6.329,6.328,6.329c3.495,0,6.329-2.834,6.329-6.329V86.004c0.441,0.011,0.878,0.016,1.318,0.016v30.831
			c0,3.495,2.834,6.329,6.329,6.329c3.495,0,6.328-2.834,6.328-6.329V83.705c0-0.252-0.045-0.492-0.074-0.737l1.035-1.229
			c0.892-1.651,1.413-3.521,1.413-5.572V55.969c2.004,4.615,3.543,10.611,3.543,18.271c0,2.914,2.361,5.274,5.273,5.274
			c1.524,0,2.885-0.655,3.847-1.688c0.855,0.599,1.891,0.953,3.012,0.953c2.913,0,5.273-2.359,5.273-5.272
			c0-6.333,1.059-11.521,2.555-15.748v7.61l-0.154,0.014l-3.504,28.125h5.021v23.344c0,3.495,2.834,6.329,6.329,6.329
			c3.494,0,6.328-2.834,6.328-6.329V93.507h1.318v23.344c0,3.495,2.834,6.329,6.328,6.329c3.496,0,6.329-2.834,6.329-6.329V93.507
			h5.438l-2.977-30.938l-0.09,0.008v-6.607c2.004,4.615,3.543,10.611,3.543,18.271c0,2.914,2.361,5.274,5.273,5.274
			c2.914,0,5.274-2.36,5.274-5.274C117.305,48.809,103.152,37.202,100.121,35.006z"/>
	</g>
</g>
<g>
</g>
<g>
</g>
<g>
</g>
<g>
</g>
<g>
</g>
<g>
</g>
<g>
</g>
<g>
</g>
<g>
</g>
<g>
</g>
<g>
</g>
<g>
</g>
<g>
</g>
<g>
</g>
<g>
</g>
</svg>
